<svg width="340" height="87" viewBox="0 0 340 87" fill="none" xmlns="http://www.w3.org/2000/svg">
<path fill-rule="evenodd" clip-rule="evenodd" d="M32 0C14.3269 0 0 14.3269 0 32V0H32ZM308 0C325.673 0 340 14.3269 340 32V0H308ZM340 54.5C340 72.1731 325.673 86.5 308 86.5H340V54.5ZM32 86.5C14.3269 86.5 0 72.1731 0 54.5V86.5H32Z" fill="#EEEEEE"/>
<path d="M63.7812 65.9375C60.3438 65.7708 57.1562 65.4167 54.2188 64.875C51.3021 64.3125 48.7083 63.6458 46.4375 62.875V53.4688C48.7708 54.7604 51.4062 55.8021 54.3438 56.5938C57.2812 57.3854 60.4271 57.8958 63.7812 58.125V47.8125C62.3438 47.5208 60.9062 47.1979 59.4688 46.8438C58.0312 46.4896 56.6562 46.0729 55.3438 45.5938C54.0521 45.1146 52.8438 44.5625 51.7188 43.9375C50.5938 43.2917 49.6146 42.5521 48.7812 41.7188C47.9688 40.8854 47.3229 39.9479 46.8438 38.9062C46.3854 37.8438 46.1562 36.6354 46.1562 35.2812C46.1562 33.7396 46.3958 32.3854 46.875 31.2188C47.375 30.0521 48.0417 29.0312 48.875 28.1562C49.7292 27.2812 50.7188 26.5521 51.8438 25.9688C52.9896 25.3646 54.2188 24.875 55.5312 24.5C56.8438 24.1042 58.1979 23.8125 59.5938 23.625C61.0104 23.4167 62.4062 23.2708 63.7812 23.1875V19.0312H72.0312V23.25C74.6771 23.4375 77.2812 23.7708 79.8438 24.25C82.4271 24.7292 84.75 25.2708 86.8125 25.875V34.9062C86.1458 34.5938 85.3021 34.25 84.2812 33.875C83.2604 33.4792 82.1146 33.0938 80.8438 32.7188C79.5729 32.3438 78.1875 32.0104 76.6875 31.7188C75.2083 31.4062 73.6562 31.1667 72.0312 31V40.0312C73.4896 40.3438 74.9583 40.6875 76.4375 41.0625C77.9167 41.4375 79.3229 41.875 80.6562 42.375C82.0104 42.875 83.2708 43.4583 84.4375 44.125C85.6042 44.7708 86.6146 45.5208 87.4688 46.375C88.3438 47.2292 89.0208 48.1979 89.5 49.2812C90 50.3646 90.25 51.5833 90.25 52.9375C90.25 54.5833 90 56.0312 89.5 57.2812C89 58.5312 88.3125 59.625 87.4375 60.5625C86.5625 61.4792 85.5417 62.2604 84.375 62.9062C83.2083 63.5312 81.9479 64.0521 80.5938 64.4688C79.2396 64.8646 77.8333 65.1771 76.375 65.4062C74.9167 65.6146 73.4688 65.7708 72.0312 65.875V70.0312H63.7812V65.9375ZM79.4375 53.7188C79.4375 53.1771 79.25 52.6979 78.875 52.2812C78.5 51.8438 77.9792 51.4688 77.3125 51.1562C76.6667 50.8229 75.8854 50.5208 74.9688 50.25C74.0729 49.9792 73.0938 49.7292 72.0312 49.5V58.0625C73.4479 57.9167 74.625 57.6979 75.5625 57.4062C76.5208 57.0938 77.2812 56.7396 77.8438 56.3438C78.4271 55.9479 78.8333 55.5312 79.0625 55.0938C79.3125 54.6354 79.4375 54.1771 79.4375 53.7188ZM56.9062 34.375C56.9062 34.875 57.0729 35.3229 57.4062 35.7188C57.7396 36.0938 58.2083 36.4375 58.8125 36.75C59.4375 37.0625 60.1667 37.3542 61 37.625C61.8542 37.875 62.7812 38.1146 63.7812 38.3438V31C62.3021 31.1042 61.1146 31.2812 60.2188 31.5312C59.3229 31.7604 58.625 32.0312 58.125 32.3438C57.6458 32.6354 57.3229 32.9583 57.1562 33.3125C56.9896 33.6667 56.9062 34.0208 56.9062 34.375ZM150.438 54.1562C150.438 55.8229 150.219 57.2708 149.781 58.5C149.344 59.7292 148.729 60.7917 147.938 61.6875C147.167 62.5625 146.229 63.2812 145.125 63.8438C144.042 64.3854 142.833 64.8229 141.5 65.1562C140.188 65.4688 138.781 65.6875 137.281 65.8125C135.781 65.9375 134.229 66 132.625 66H101.469V23.0625H132.062C133.292 23.0625 134.521 23.1146 135.75 23.2188C137 23.3229 138.188 23.5208 139.312 23.8125C140.438 24.0833 141.479 24.4688 142.438 24.9688C143.417 25.4688 144.26 26.125 144.969 26.9375C145.698 27.75 146.26 28.7292 146.656 29.875C147.073 31.0208 147.281 32.375 147.281 33.9375C147.281 36.7292 146.594 38.9479 145.219 40.5938C143.844 42.2188 141.677 43.3021 138.719 43.8438C140.802 43.9896 142.583 44.3125 144.062 44.8125C145.562 45.2917 146.781 45.9583 147.719 46.8125C148.656 47.6458 149.344 48.6771 149.781 49.9062C150.219 51.1146 150.438 52.5312 150.438 54.1562ZM135.969 35.7812C135.969 35.2396 135.885 34.7292 135.719 34.25C135.552 33.75 135.25 33.3125 134.812 32.9375C134.375 32.5625 133.781 32.2604 133.031 32.0312C132.281 31.8021 131.323 31.6875 130.156 31.6875H113.062V39.75H130.156C131.323 39.75 132.281 39.6458 133.031 39.4375C133.781 39.2292 134.375 38.9479 134.812 38.5938C135.25 38.2396 135.552 37.8229 135.719 37.3438C135.885 36.8438 135.969 36.3229 135.969 35.7812ZM138.656 52.8125C138.656 51.8333 138.49 51.0521 138.156 50.4688C137.823 49.8646 137.302 49.4062 136.594 49.0938C135.885 48.7604 134.969 48.5417 133.844 48.4375C132.719 48.3333 131.375 48.2812 129.812 48.2812H113.062V57.375H129.812C131.375 57.375 132.719 57.3229 133.844 57.2188C134.969 57.1146 135.885 56.8958 136.594 56.5625C137.302 56.2292 137.823 55.7708 138.156 55.1875C138.49 54.5833 138.656 53.7917 138.656 52.8125ZM172.625 66H161.031V23.0625H190.094C193.219 23.0625 195.865 23.3854 198.031 24.0312C200.219 24.6771 201.99 25.5938 203.344 26.7812C204.719 27.9688 205.708 29.4062 206.312 31.0938C206.938 32.7604 207.25 34.625 207.25 36.6875C207.25 38.5 206.99 40.0833 206.469 41.4375C205.969 42.7917 205.281 43.9583 204.406 44.9375C203.552 45.8958 202.552 46.7083 201.406 47.375C200.26 48.0417 199.052 48.5938 197.781 49.0312L211.844 66H198.281L185.281 50.1875H172.625V66ZM195.531 36.625C195.531 35.7917 195.417 35.0833 195.188 34.5C194.979 33.9167 194.604 33.4479 194.062 33.0938C193.521 32.7188 192.792 32.4479 191.875 32.2812C190.979 32.1146 189.854 32.0312 188.5 32.0312H172.625V41.2188H188.5C189.854 41.2188 190.979 41.1354 191.875 40.9688C192.792 40.8021 193.521 40.5417 194.062 40.1875C194.604 39.8125 194.979 39.3333 195.188 38.75C195.417 38.1667 195.531 37.4583 195.531 36.625ZM274.75 66V35.8438L258.812 66H247.688L231.75 35.8438V66H220.156V23.0625H235.906L253.25 55.5625L270.594 23.0625H286.281V66H274.75Z" fill="#00F6FF"/>
</svg>
