<svg width="258" height="178" viewBox="0 0 258 178" fill="none" xmlns="http://www.w3.org/2000/svg">
<path d="M137.487 81.6794C137.67 83.2518 137.794 84.841 137.855 86.445L137.356 86.4642C137.386 87.2525 137.401 88.0443 137.401 88.8396C137.401 89.6348 137.386 90.4267 137.356 91.2149L137.855 91.2342C137.794 92.8382 137.67 94.4274 137.487 95.9997L136.991 95.942C136.807 97.5221 136.562 99.0851 136.259 100.629L136.75 100.725C136.442 102.296 136.074 103.847 135.648 105.376L135.166 105.242C134.741 106.77 134.257 108.277 133.718 109.759L134.187 109.93C133.641 111.431 133.038 112.907 132.381 114.356L131.925 114.149C131.271 115.591 130.563 117.006 129.803 118.392L130.241 118.632C129.474 120.03 128.655 121.399 127.786 122.735L127.367 122.463C126.505 123.788 125.594 125.082 124.636 126.342L125.034 126.645C124.07 127.912 123.059 129.146 122.003 130.343L121.628 130.012C120.583 131.197 119.494 132.345 118.363 133.456L118.714 133.813C117.578 134.928 116.402 136.005 115.185 137.041L114.861 136.661C113.66 137.684 112.42 138.668 111.144 139.611L111.441 140.013C110.161 140.957 108.846 141.86 107.496 142.719L107.228 142.297C105.898 143.144 104.534 143.948 103.139 144.707L103.378 145.146C101.983 145.905 100.557 146.62 99.1015 147.287L98.893 146.833C97.4608 147.49 96.0007 148.102 94.5147 148.666L94.6921 149.133C93.2084 149.696 91.6992 150.212 90.1664 150.678L90.0208 150.2C88.5143 150.659 86.9849 151.07 85.4346 151.431L85.548 151.918C84.0048 152.277 82.4411 152.587 80.8589 152.847L80.778 152.353C79.2246 152.608 77.6532 152.814 76.0657 152.968L76.1141 153.466C74.5398 153.619 72.9498 153.722 71.346 153.774L71.3299 153.274C70.5401 153.299 69.7469 153.312 68.9506 153.312C68.1542 153.312 67.361 153.299 66.5713 153.274L66.5552 153.774C64.9513 153.722 63.3614 153.619 61.7871 153.466L61.8355 152.968C60.248 152.814 58.6766 152.608 57.1232 152.353L57.0423 152.847C55.46 152.587 53.8964 152.277 52.3532 151.918L52.4666 151.431C50.9163 151.07 49.3869 150.659 47.8804 150.2L47.7347 150.678C46.202 150.212 44.6928 149.696 43.2091 149.133L43.3865 148.666C41.9005 148.102 40.4403 147.49 39.0082 146.833L38.7997 147.287C37.3446 146.62 35.9182 145.905 34.5227 145.146L34.7617 144.707C33.3671 143.948 32.0035 143.144 30.6733 142.297L30.4048 142.719C29.0553 141.86 27.7398 140.958 26.4606 140.013L26.7576 139.611C25.4813 138.668 24.2414 137.684 23.0403 136.661L22.716 137.041C21.4996 136.005 20.3227 134.928 19.1876 133.813L19.538 133.456C18.4072 132.345 17.3183 131.197 16.2736 130.012L15.8986 130.343C14.8426 129.146 13.8314 127.912 12.8673 126.645L13.2653 126.342C12.307 125.082 11.3958 123.788 10.534 122.463L10.1148 122.735C9.24582 121.399 8.42668 120.03 7.65982 118.632L8.09819 118.392C7.33808 117.006 6.62979 115.591 5.97572 114.149L5.52038 114.356C4.86308 112.907 4.26006 111.431 3.71373 109.93L4.18357 109.759C3.64412 108.277 3.1604 106.77 2.73477 105.242L2.2531 105.376C1.82733 103.847 1.4592 102.296 1.15103 100.725L1.64168 100.629C1.33885 99.0851 1.0944 97.5222 0.910574 95.942L0.413923 95.9998C0.231009 94.4274 0.107631 92.8382 0.0459596 91.2342L0.54559 91.215C0.515285 90.4267 0.5 89.6349 0.5 88.8396C0.5 88.0443 0.515284 87.2525 0.54559 86.4643L0.0459587 86.445C0.107629 84.841 0.231006 83.2518 0.41392 81.6795L0.910571 81.7372C1.0944 80.1571 1.33885 78.5941 1.64168 77.0504L1.15103 76.9542C1.45919 75.3833 1.82732 73.8323 2.25309 72.3033L2.73477 72.4374C3.16039 70.9089 3.64411 69.4026 4.18356 67.9205L3.71372 67.7495C4.26005 66.2486 4.86307 64.7725 5.52037 63.3235L5.97571 63.5301C6.62978 62.0882 7.33807 60.6732 8.09818 59.2875L7.6598 59.0471C8.42666 57.6491 9.24581 56.2806 10.1148 54.9441L10.534 55.2167C11.3958 53.8912 12.307 52.5974 13.2653 51.3373L12.8673 51.0346C13.8314 49.767 14.8426 48.5334 15.8986 47.3362L16.2736 47.6669C17.3183 46.4824 18.4072 45.3337 19.538 44.223L19.1876 43.8663C20.3227 42.7514 21.4996 41.6744 22.716 40.6378L23.0403 41.0184C24.2414 39.9948 25.4813 39.0107 26.7576 38.0684L26.4606 37.6661C27.7398 36.7217 29.0553 35.8189 30.4048 34.96L30.6733 35.3818C32.0035 34.5351 33.3671 33.7313 34.7617 32.9725L34.5227 32.5333C35.9182 31.774 37.3446 31.0595 38.7996 30.3917L39.0082 30.8462C40.4403 30.1889 41.9005 29.5774 43.3864 29.0135L43.2091 28.5461C44.6928 27.9831 46.202 27.4673 47.7347 27.0007L47.8803 27.479C49.3869 27.0204 50.9163 26.6097 52.4665 26.2487L52.3531 25.7617C53.8963 25.4023 55.46 25.0919 57.0422 24.8324L57.1232 25.3258C58.6766 25.0709 60.248 24.8654 61.8355 24.711L61.7871 24.2134C63.3614 24.0602 64.9513 23.957 66.5552 23.9054L66.5713 24.4052C67.361 24.3798 68.1542 24.3669 68.9506 24.3669C69.7469 24.3669 70.5401 24.3798 71.3299 24.4052L71.3459 23.9054C72.9498 23.957 74.5398 24.0602 76.114 24.2134L76.0656 24.711C77.6532 24.8654 79.2246 25.0709 80.778 25.3258L80.8589 24.8324C82.4411 25.0919 84.0048 25.4023 85.548 25.7617L85.4346 26.2487C86.9848 26.6097 88.5143 27.0204 90.0208 27.479L90.1664 27.0007C91.6991 27.4673 93.2084 27.9831 94.6921 28.546L94.5147 29.0135C96.0007 29.5774 97.4608 30.1889 98.893 30.8462L99.1015 30.3917C100.557 31.0594 101.983 31.774 103.378 32.5333L103.139 32.9725C104.534 33.7313 105.898 34.5351 107.228 35.3818L107.496 34.96C108.846 35.8189 110.161 36.7217 111.441 37.6661L111.144 38.0684C112.42 39.0107 113.66 39.9948 114.861 41.0184L115.185 40.6378C116.402 41.6744 117.578 42.7513 118.714 43.8663L118.363 44.223C119.494 45.3337 120.583 46.4824 121.628 47.6669L122.003 47.3361C123.059 48.5334 124.07 49.767 125.034 51.0346L124.636 51.3373C125.594 52.5973 126.505 53.8912 127.367 55.2167L127.786 54.9441C128.655 56.2806 129.474 57.649 130.241 59.0471L129.803 59.2875C130.563 60.6732 131.271 62.0882 131.925 63.53L132.381 63.3235C133.038 64.7725 133.641 66.2486 134.187 67.7495L133.718 67.9205C134.257 69.4025 134.741 70.9089 135.166 72.4374L135.648 72.3033C136.074 73.8323 136.442 75.3833 136.75 76.9542L136.259 77.0504C136.562 78.5941 136.807 80.157 136.991 81.7372L137.487 81.6794Z" stroke="#EEEEEE" stroke-dasharray="5 5"/>
<path d="M256.825 81.6794C257.008 83.2518 257.131 84.841 257.193 86.445L256.693 86.4642C256.724 87.2525 256.739 88.0443 256.739 88.8396C256.739 89.6348 256.724 90.4267 256.693 91.2149L257.193 91.2342C257.131 92.8382 257.008 94.4274 256.825 95.9997L256.328 95.942C256.145 97.5221 255.9 99.0851 255.597 100.629L256.088 100.725C255.78 102.296 255.412 103.847 254.986 105.376L254.504 105.242C254.079 106.77 253.595 108.277 253.055 109.759L253.525 109.93C252.979 111.431 252.376 112.907 251.719 114.356L251.263 114.149C250.609 115.591 249.901 117.006 249.141 118.392L249.579 118.632C248.812 120.03 247.993 121.399 247.124 122.735L246.705 122.463C245.843 123.788 244.932 125.082 243.974 126.342L244.372 126.645C243.408 127.912 242.396 129.146 241.34 130.343L240.965 130.012C239.921 131.197 238.832 132.345 237.701 133.456L238.051 133.813C236.916 134.928 235.739 136.005 234.523 137.041L234.199 136.661C232.998 137.684 231.758 138.668 230.481 139.611L230.778 140.013C229.499 140.957 228.184 141.86 226.834 142.719L226.566 142.297C225.236 143.144 223.872 143.948 222.477 144.707L222.716 145.146C221.321 145.905 219.894 146.62 218.439 147.287L218.231 146.833C216.799 147.49 215.339 148.102 213.853 148.666L214.03 149.133C212.546 149.696 211.037 150.212 209.504 150.678L209.359 150.2C207.852 150.659 206.323 151.07 204.772 151.431L204.886 151.918C203.343 152.277 201.779 152.587 200.197 152.847L200.116 152.353C198.562 152.608 196.991 152.814 195.404 152.968L195.452 153.466C193.878 153.619 192.288 153.722 190.684 153.774L190.668 153.274C189.878 153.299 189.085 153.312 188.288 153.312C187.492 153.312 186.699 153.299 185.909 153.274L185.893 153.774C184.289 153.722 182.699 153.619 181.125 153.466L181.173 152.968C179.586 152.814 178.014 152.608 176.461 152.353L176.38 152.847C174.798 152.587 173.234 152.277 171.691 151.918L171.804 151.431C170.254 151.07 168.725 150.659 167.218 150.2L167.073 150.678C165.54 150.212 164.031 149.696 162.547 149.133L162.724 148.666C161.238 148.102 159.778 147.49 158.346 146.833L158.138 147.287C156.683 146.62 155.256 145.905 153.861 145.146L154.1 144.707C152.705 143.948 151.341 143.144 150.011 142.297L149.743 142.719C148.393 141.86 147.078 140.958 145.798 140.013L146.095 139.611C144.819 138.668 143.579 137.684 142.378 136.661L142.054 137.041C140.838 136.005 139.661 134.928 138.525 133.813L138.876 133.456C137.745 132.345 136.656 131.197 135.611 130.012L135.236 130.343C134.18 129.146 133.169 127.912 132.205 126.645L132.603 126.342C131.645 125.082 130.734 123.788 129.872 122.463L129.453 122.735C128.584 121.399 127.765 120.03 126.998 118.632L127.436 118.392C126.676 117.006 125.968 115.591 125.314 114.149L124.858 114.356C124.201 112.907 123.598 111.431 123.052 109.93L123.521 109.759C122.982 108.277 122.498 106.77 122.073 105.242L121.591 105.376C121.165 103.847 120.797 102.296 120.489 100.725L120.98 100.629C120.677 99.0851 120.432 97.5222 120.248 95.942L119.752 95.9998C119.569 94.4274 119.446 92.8382 119.384 91.2342L119.883 91.215C119.853 90.4267 119.838 89.6349 119.838 88.8396C119.838 88.0443 119.853 87.2525 119.883 86.4643L119.384 86.445C119.446 84.841 119.569 83.2518 119.752 81.6795L120.248 81.7372C120.432 80.1571 120.677 78.5941 120.98 77.0504L120.489 76.9542C120.797 75.3833 121.165 73.8323 121.591 72.3033L122.073 72.4374C122.498 70.9089 122.982 69.4026 123.521 67.9205L123.052 67.7495C123.598 66.2486 124.201 64.7725 124.858 63.3235L125.314 63.5301C125.968 62.0882 126.676 60.6732 127.436 59.2875L126.998 59.0471C127.765 57.6491 128.584 56.2806 129.453 54.9441L129.872 55.2167C130.734 53.8912 131.645 52.5974 132.603 51.3373L132.205 51.0346C133.169 49.767 134.18 48.5334 135.236 47.3362L135.611 47.6669C136.656 46.4824 137.745 45.3337 138.876 44.223L138.525 43.8663C139.661 42.7514 140.838 41.6744 142.054 40.6378L142.378 41.0184C143.579 39.9948 144.819 39.0107 146.095 38.0684L145.798 37.6661C147.078 36.7217 148.393 35.8189 149.743 34.96L150.011 35.3818C151.341 34.5351 152.705 33.7313 154.1 32.9725L153.861 32.5333C155.256 31.774 156.683 31.0595 158.138 30.3917L158.346 30.8462C159.778 30.1889 161.238 29.5774 162.724 29.0135L162.547 28.5461C164.031 27.9831 165.54 27.4673 167.073 27.0007L167.218 27.479C168.725 27.0204 170.254 26.6097 171.804 26.2487L171.691 25.7617C173.234 25.4023 174.798 25.0919 176.38 24.8324L176.461 25.3258C178.014 25.0709 179.586 24.8654 181.173 24.711L181.125 24.2134C182.699 24.0602 184.289 23.957 185.893 23.9054L185.909 24.4052C186.699 24.3798 187.492 24.3669 188.288 24.3669C189.085 24.3669 189.878 24.3798 190.668 24.4052L190.684 23.9054C192.288 23.957 193.878 24.0602 195.452 24.2134L195.404 24.711C196.991 24.8654 198.562 25.0709 200.116 25.3258L200.197 24.8324C201.779 25.0919 203.343 25.4023 204.886 25.7617L204.772 26.2487C206.323 26.6097 207.852 27.0204 209.359 27.479L209.504 27.0007C211.037 27.4673 212.546 27.9831 214.03 28.546L213.853 29.0135C215.339 29.5774 216.799 30.1889 218.231 30.8462L218.439 30.3917C219.894 31.0594 221.321 31.774 222.716 32.5333L222.477 32.9725C223.872 33.7313 225.236 34.5351 226.566 35.3818L226.834 34.96C228.184 35.8189 229.499 36.7217 230.778 37.6661L230.481 38.0684C231.758 39.0107 232.998 39.9948 234.199 41.0184L234.523 40.6378C235.739 41.6744 236.916 42.7513 238.051 43.8663L237.701 44.223C238.832 45.3337 239.921 46.4824 240.965 47.6669L241.34 47.3361C242.396 48.5334 243.408 49.767 244.372 51.0346L243.974 51.3373C244.932 52.5973 245.843 53.8912 246.705 55.2167L247.124 54.9441C247.993 56.2806 248.812 57.649 249.579 59.0471L249.141 59.2875C249.901 60.6732 250.609 62.0882 251.263 63.53L251.719 63.3235C252.376 64.7725 252.979 66.2486 253.525 67.7495L253.055 67.9205C253.595 69.4025 254.079 70.9089 254.504 72.4374L254.986 72.3033C255.412 73.8323 255.78 75.3833 256.088 76.9542L255.597 77.0504C255.9 78.5941 256.145 80.157 256.328 81.7372L256.825 81.6794Z" stroke="#00F6FF" stroke-dasharray="5 5"/>
<path opacity="0.75" d="M256.239 88.8402C256.239 112.951 242.091 134.886 218.999 150.837C195.91 166.784 163.959 176.68 128.619 176.68C93.2793 176.68 61.3284 166.784 38.2401 150.837C15.1476 134.886 1 112.951 1 88.8402C1 64.7296 15.1476 42.7939 38.2401 26.8435C61.3284 10.8958 93.2793 1 128.619 1C163.959 1 195.91 10.8958 218.999 26.8435C242.091 42.7939 256.239 64.7296 256.239 88.8402Z" stroke="#EEEEEE" stroke-width="2"/>
<path d="M154.638 90.8306C154.638 108.583 142.612 122.817 127.956 122.817C113.299 122.817 101.273 108.583 101.273 90.8306C101.273 73.0778 113.299 58.8442 127.956 58.8442C142.612 58.8442 154.638 73.0778 154.638 90.8306Z" stroke="#EEEEEE"/>
<circle cx="127.956" cy="90.8306" r="31.9863" stroke="#EEEEEE"/>
<line x1="47.7344" y1="88.3394" x2="205.525" y2="88.3394" stroke="#EEEEEE" stroke-dasharray="5 5"/>
<ellipse cx="127.958" cy="88.8389" rx="4.6409" ry="19.8896" fill="#00F6FF"/>
<circle cx="47.7357" cy="88.8405" r="3.97792" fill="#00F6FF"/>
<circle cx="205.527" cy="88.8405" r="3.97792" fill="#00F6FF"/>
</svg>
