<svg width="495" height="420" viewBox="0 0 495 420" fill="none" xmlns="http://www.w3.org/2000/svg">
<mask id="mask0_9833_107" style="mask-type:alpha" maskUnits="userSpaceOnUse" x="7" y="39" width="471" height="319">
<rect x="7" y="39" width="471" height="319" fill="url(#paint0_linear_9833_107)"/>
</mask>
<g mask="url(#mask0_9833_107)">
<line x1="61.6963" y1="-53.9175" x2="61.6963" y2="437.955" stroke="#EEEEEE"/>
<line x1="135.592" y1="-53.9175" x2="135.592" y2="437.955" stroke="#EEEEEE" stroke-dasharray="2 2"/>
<line x1="209.489" y1="-53.9175" x2="209.489" y2="437.955" stroke="#EEEEEE"/>
<path fill-rule="evenodd" clip-rule="evenodd" d="M282.884 -52.9178L282.884 -53.9175L283.884 -53.9175L283.884 -52.9178L282.884 -52.9178ZM282.884 -48.9188L282.884 -50.9183L283.884 -50.9183L283.884 -48.9188L282.884 -48.9188ZM282.884 -44.9199L282.884 -46.9193L283.884 -46.9193L283.884 -44.9199L282.884 -44.9199ZM282.884 -40.9209L282.884 -42.9204L283.884 -42.9204L283.884 -40.9209L282.884 -40.9209ZM282.884 -36.9219L282.884 -38.9214L283.884 -38.9214L283.884 -36.9219L282.884 -36.9219ZM282.884 -32.923L282.884 -34.9224L283.884 -34.9224L283.884 -32.923L282.884 -32.923ZM282.884 -28.924L282.884 -30.9235L283.884 -30.9235L283.884 -28.924L282.884 -28.924ZM282.884 -24.925L282.884 -26.9245L283.884 -26.9245L283.884 -24.925L282.884 -24.925ZM282.884 -20.9261L282.884 -22.9255L283.884 -22.9255L283.884 -20.9261L282.884 -20.9261ZM282.884 -16.9271L282.884 -18.9266L283.884 -18.9266L283.884 -16.9271L282.884 -16.9271ZM282.884 -12.9281L282.884 -14.9276L283.884 -14.9276L283.884 -12.9281L282.884 -12.9281ZM282.884 -8.92915L282.884 -10.9286L283.884 -10.9286L283.884 -8.92915L282.884 -8.92915ZM282.884 -4.93018L282.884 -6.92967L283.884 -6.92967L283.884 -4.93018L282.884 -4.93018ZM282.884 -0.931213L282.884 -2.9307L283.884 -2.9307L283.884 -0.931213L282.884 -0.931213ZM282.884 3.06776L282.884 1.06827L283.884 1.06827L283.884 3.06776L282.884 3.06776ZM282.884 7.06673L282.884 5.06724L283.884 5.06724L283.884 7.06673L282.884 7.06673ZM282.884 11.0657L282.884 9.06622L283.884 9.06622L283.884 11.0657L282.884 11.0657ZM282.884 15.0647L282.884 13.0652L283.884 13.0652L283.884 15.0647L282.884 15.0647ZM282.884 19.0636L282.884 17.0641L283.884 17.0641L283.884 19.0636L282.884 19.0636ZM282.884 23.0626L282.884 21.0631L283.884 21.0631L283.884 23.0626L282.884 23.0626ZM282.884 27.0615L282.884 25.0621L283.884 25.0621L283.884 27.0615L282.884 27.0615ZM282.884 31.0605L282.884 29.061L283.884 29.061L283.884 31.0605L282.884 31.0605ZM282.884 35.0595L282.884 33.06L283.884 33.06L283.884 35.0595L282.884 35.0595ZM282.884 39.0584L282.884 37.059L283.884 37.059L283.884 39.0584L282.884 39.0584ZM282.884 43.0574L282.884 41.0579L283.884 41.0579L283.884 43.0574L282.884 43.0574ZM282.884 47.0564L282.884 45.0569L283.884 45.0569L283.884 47.0564L282.884 47.0564ZM282.884 51.0553L282.884 49.0558L283.884 49.0558L283.884 51.0553L282.884 51.0553ZM282.884 55.0543L282.884 53.0548L283.884 53.0548L283.884 55.0543L282.884 55.0543ZM282.884 59.0532L282.884 57.0538L283.884 57.0538L283.884 59.0532L282.884 59.0532ZM282.884 63.0522L282.884 61.0527L283.884 61.0527L283.884 63.0522L282.884 63.0522ZM282.884 67.0512L282.884 65.0517L283.884 65.0517L283.884 67.0512L282.884 67.0512ZM282.884 71.0501L282.884 69.0507L283.884 69.0507L283.884 71.0501L282.884 71.0501ZM282.884 75.0491L282.884 73.0496L283.884 73.0496L283.884 75.0491L282.884 75.0491ZM282.884 79.0481L282.884 77.0486L283.884 77.0486L283.884 79.0481L282.884 79.0481ZM282.884 83.047L282.884 81.0475L283.884 81.0475L283.884 83.047L282.884 83.047ZM282.884 87.046L282.884 85.0465L283.884 85.0465L283.884 87.046L282.884 87.046ZM282.884 91.045L282.884 89.0455L283.884 89.0455L283.884 91.045L282.884 91.045ZM282.884 95.0439L282.884 93.0444L283.884 93.0444L283.884 95.0439L282.884 95.0439ZM282.884 99.0429L282.884 97.0434L283.884 97.0434L283.884 99.0429L282.884 99.0429ZM282.884 103.042L282.884 101.042L283.884 101.042L283.884 103.042L282.884 103.042ZM282.884 107.041L282.884 105.041L283.884 105.041L283.884 107.041L282.884 107.041ZM282.884 111.04L282.884 109.04L283.884 109.04L283.884 111.04L282.884 111.04ZM282.884 115.039L282.884 113.039L283.884 113.039L283.884 115.039L282.884 115.039ZM282.884 119.038L282.884 117.038L283.884 117.038L283.884 119.038L282.884 119.038ZM282.884 123.037L282.884 121.037L283.884 121.037L283.884 123.037L282.884 123.037ZM282.884 127.036L282.884 125.036L283.884 125.036L283.884 127.036L282.884 127.036ZM282.884 131.035L282.884 129.035L283.884 129.035L283.884 131.035L282.884 131.035ZM282.884 135.034L282.884 133.034L283.884 133.034L283.884 135.034L282.884 135.034ZM282.884 139.033L282.884 137.033L283.884 137.033L283.884 139.033L282.884 139.033ZM282.884 143.031L282.884 141.032L283.884 141.032L283.884 143.031L282.884 143.031ZM282.884 147.03L282.884 145.031L283.884 145.031L283.884 147.03L282.884 147.03ZM282.884 151.029L282.884 149.03L283.884 149.03L283.884 151.029L282.884 151.029ZM282.884 155.028L282.884 153.029L283.884 153.029L283.884 155.028L282.884 155.028ZM282.884 159.027L282.884 157.028L283.884 157.028L283.884 159.027L282.884 159.027ZM282.884 163.026L282.884 161.027L283.884 161.027L283.884 163.026L282.884 163.026ZM282.884 167.025L282.884 165.026L283.884 165.026L283.884 167.025L282.884 167.025ZM282.884 171.024L282.884 169.025L283.884 169.025L283.884 171.024L282.884 171.024ZM282.884 175.023L282.884 173.024L283.884 173.024L283.884 175.023L282.884 175.023ZM282.884 179.022L282.884 177.023L283.884 177.023L283.884 179.022L282.884 179.022ZM282.884 183.021L282.884 181.022L283.884 181.022L283.884 183.021L282.884 183.021ZM282.884 187.02L282.884 185.021L283.884 185.021L283.884 187.02L282.884 187.02ZM282.884 191.019L282.884 189.02L283.884 189.02L283.884 191.019L282.884 191.019ZM282.884 195.018L282.884 193.018L283.884 193.018L283.884 195.018L282.884 195.018ZM282.884 199.017L282.884 197.017L283.884 197.017L283.884 199.017L282.884 199.017ZM282.884 203.016L282.884 201.016L283.884 201.016L283.884 203.016L282.884 203.016ZM282.884 207.015L282.884 205.015L283.884 205.015L283.884 207.015L282.884 207.015ZM282.884 211.014L282.884 209.014L283.884 209.014L283.884 211.014L282.884 211.014ZM282.884 215.013L282.884 213.013L283.884 213.013L283.884 215.013L282.884 215.013ZM282.884 219.012L282.884 217.012L283.884 217.012L283.884 219.012L282.884 219.012ZM282.884 223.011L282.884 221.011L283.884 221.011L283.884 223.011L282.884 223.011ZM282.884 227.01L282.884 225.01L283.884 225.01L283.884 227.01L282.884 227.01ZM282.884 231.009L282.884 229.009L283.884 229.009L283.884 231.009L282.884 231.009ZM282.884 235.008L282.884 233.008L283.884 233.008L283.884 235.008L282.884 235.008ZM282.884 239.007L282.884 237.007L283.884 237.007L283.884 239.007L282.884 239.007ZM282.884 243.006L282.884 241.006L283.884 241.006L283.884 243.006L282.884 243.006ZM282.884 247.004L282.884 245.005L283.884 245.005L283.884 247.004L282.884 247.004ZM282.884 251.003L282.884 249.004L283.884 249.004L283.884 251.003L282.884 251.003ZM282.884 255.002L282.884 253.003L283.884 253.003L283.884 255.002L282.884 255.002ZM282.884 259.001L282.884 257.002L283.884 257.002L283.884 259.001L282.884 259.001ZM282.884 263L282.884 261.001L283.884 261.001L283.884 263L282.884 263ZM282.884 266.999L282.884 265L283.884 265L283.884 266.999L282.884 266.999ZM282.884 270.998L282.884 268.999L283.884 268.999L283.884 270.998L282.884 270.998ZM282.884 274.997L282.884 272.998L283.884 272.998L283.884 274.997L282.884 274.997ZM282.884 334.982L282.884 332.982L283.884 332.982L283.884 334.982L282.884 334.982ZM282.884 338.981L282.884 336.981L283.884 336.981L283.884 338.981L282.884 338.981ZM282.884 342.98L282.884 340.98L283.884 340.98L283.884 342.98L282.884 342.98ZM282.884 346.979L282.884 344.979L283.884 344.979L283.884 346.979L282.884 346.979ZM282.884 350.978L282.884 348.978L283.884 348.978L283.884 350.978L282.884 350.978ZM282.884 354.976L282.884 352.977L283.884 352.977L283.884 354.976L282.884 354.976ZM282.884 358.975L282.884 356.976L283.884 356.976L283.884 358.975L282.884 358.975ZM282.884 362.974L282.884 360.975L283.884 360.975L283.884 362.974L282.884 362.974ZM282.884 366.973L282.884 364.974L283.884 364.974L283.884 366.973L282.884 366.973ZM282.884 370.972L282.884 368.973L283.884 368.973L283.884 370.972L282.884 370.972ZM282.884 374.971L282.884 372.972L283.884 372.972L283.884 374.971L282.884 374.971ZM282.884 378.97L282.884 376.971L283.884 376.971L283.884 378.97L282.884 378.97ZM282.884 382.969L282.884 380.97L283.884 380.97L283.884 382.969L282.884 382.969ZM282.884 386.968L282.884 384.969L283.884 384.969L283.884 386.968L282.884 386.968ZM282.884 390.967L282.884 388.968L283.884 388.968L283.884 390.967L282.884 390.967ZM282.884 394.966L282.884 392.967L283.884 392.967L283.884 394.966L282.884 394.966ZM282.884 398.965L282.884 396.966L283.884 396.966L283.884 398.965L282.884 398.965ZM282.884 402.964L282.884 400.965L283.884 400.965L283.884 402.964L282.884 402.964ZM282.884 406.963L282.884 404.964L283.884 404.964L283.884 406.963L282.884 406.963ZM282.884 410.962L282.884 408.962L283.884 408.962L283.884 410.962L282.884 410.962ZM282.884 414.961L282.884 412.961L283.884 412.961L283.884 414.961L282.884 414.961ZM282.884 418.96L282.884 416.96L283.884 416.96L283.884 418.96L282.884 418.96ZM282.884 422.959L282.884 420.959L283.884 420.959L283.884 422.959L282.884 422.959ZM282.884 426.958L282.884 424.958L283.884 424.958L283.884 426.958L282.884 426.958ZM282.884 430.957L282.884 428.957L283.884 428.957L283.884 430.957L282.884 430.957ZM282.884 434.956L282.884 432.956L283.884 432.956L283.884 434.956L282.884 434.956ZM282.884 437.955L282.884 436.955L283.884 436.955L283.884 437.955L282.884 437.955Z" fill="#EEEEEE"/>
<line x1="357.281" y1="-53.9175" x2="357.281" y2="437.955" stroke="#EEEEEE"/>
<line x1="431.177" y1="-53.9175" x2="431.177" y2="437.955" stroke="#EEEEEE" stroke-dasharray="2 2"/>
<line y1="80.6743" x2="491.873" y2="80.6743" stroke="#EEEEEE" stroke-dasharray="2 2"/>
<line y1="154.571" x2="491.873" y2="154.571" stroke="#EEEEEE"/>
<line y1="228.467" x2="491.873" y2="228.467" stroke="#EEEEEE" stroke-dasharray="2 2"/>
<path fill-rule="evenodd" clip-rule="evenodd" d="M0 301.864V302.864H252.852V301.864H0ZM314.038 302.864H491.873V301.864H314.038V302.864Z" fill="#EEEEEE"/>
<g filter="url(#filter0_d_9833_107)">
<circle cx="284.039" cy="302.863" r="29.8297" stroke="#00F6FF" stroke-width="5" shape-rendering="crispEdges"/>
</g>
<path d="M111.552 303.571C111.942 303.18 111.942 302.547 111.552 302.156L105.188 295.792C104.797 295.402 104.164 295.402 103.774 295.792C103.383 296.183 103.383 296.816 103.774 297.207L109.43 302.864L103.774 308.52C103.383 308.911 103.383 309.544 103.774 309.935C104.164 310.325 104.797 310.325 105.188 309.935L111.552 303.571ZM0 303.864H110.845V301.864H0V303.864Z" fill="#00F6FF"/>
<path d="M241.329 259.345C242.158 259.345 242.829 258.673 242.829 257.845L242.829 244.345C242.829 243.516 242.158 242.845 241.329 242.845C240.501 242.845 239.829 243.516 239.829 244.345L239.829 256.345L227.829 256.345C227.001 256.345 226.329 257.016 226.329 257.845C226.329 258.673 227.001 259.345 227.829 259.345L241.329 259.345ZM31.2684 49.9053L240.268 258.905L242.39 256.784L33.3898 47.7839L31.2684 49.9053Z" fill="#00F6FF"/>
<path d="M283.332 128.067C283.722 128.457 284.356 128.457 284.746 128.067L291.11 121.703C291.501 121.312 291.501 120.679 291.11 120.288C290.72 119.898 290.086 119.898 289.696 120.288L284.039 125.945L278.382 120.288C277.992 119.898 277.359 119.898 276.968 120.288C276.577 120.679 276.577 121.312 276.968 121.703L283.332 128.067ZM283.039 -62L283.039 127.36L285.039 127.36L285.039 -62L283.039 -62Z" fill="#00F6FF"/>
<circle cx="431.5" cy="47.5" r="8.5" transform="rotate(90 431.5 47.5)" fill="#00F6FF"/>
<circle cx="134.553" cy="229.531" r="13.1914" transform="rotate(90 134.553 229.531)" fill="#00F6FF"/>
<ellipse cx="209" cy="301" rx="7" ry="7" transform="rotate(90 209 301)" fill="#00F6FF"/>
<path d="M357 236C353.134 236 350 232.866 350 229C350 225.134 353.134 222 357 222C360.866 222 364 225.134 364 229C364 232.866 360.866 236 357 236Z" fill="#00F6FF"/>
<path d="M61 162C57.134 162 54 158.866 54 155C54 151.134 57.134 148 61 148C64.866 148 68 151.134 68 155C68 158.866 64.866 162 61 162Z" fill="#00F6FF"/>
<circle cx="431.62" cy="303.62" r="8.61992" transform="rotate(90 431.62 303.62)" fill="#EEEEEE"/>
</g>
<defs>
<filter id="filter0_d_9833_107" x="239.709" y="258.534" width="88.6592" height="88.6593" filterUnits="userSpaceOnUse" color-interpolation-filters="sRGB">
<feFlood flood-opacity="0" result="BackgroundImageFix"/>
<feColorMatrix in="SourceAlpha" type="matrix" values="0 0 0 0 0 0 0 0 0 0 0 0 0 0 0 0 0 0 127 0" result="hardAlpha"/>
<feOffset/>
<feGaussianBlur stdDeviation="6"/>
<feComposite in2="hardAlpha" operator="out"/>
<feColorMatrix type="matrix" values="0 0 0 0 0 0 0 0 0 0.964706 0 0 0 0 1 0 0 0 1 0"/>
<feBlend mode="normal" in2="BackgroundImageFix" result="effect1_dropShadow_9833_107"/>
<feBlend mode="normal" in="SourceGraphic" in2="effect1_dropShadow_9833_107" result="shape"/>
</filter>
<linearGradient id="paint0_linear_9833_107" x1="277.841" y1="358" x2="173.36" y2="71.1469" gradientUnits="userSpaceOnUse">
<stop stop-color="#D9D9D9"/>
<stop offset="0.235783" stop-color="#BCBCBC"/>
<stop offset="0.484639" stop-color="#B3B3B3" stop-opacity="0.8"/>
<stop offset="1" stop-color="#737373" stop-opacity="0"/>
</linearGradient>
</defs>
</svg>
