<svg width="354" height="264" viewBox="0 0 354 264" fill="none" xmlns="http://www.w3.org/2000/svg">
<path d="M429.864 127.684C429.864 131.547 426.531 135.385 420.086 138.982C413.683 142.557 404.385 145.792 392.852 148.515C369.793 153.959 337.913 157.332 302.682 157.332C267.45 157.332 235.57 153.959 212.512 148.515C200.979 145.792 191.681 142.557 185.278 138.982C178.833 135.385 175.5 131.547 175.5 127.684C175.5 123.822 178.833 119.984 185.278 116.386C191.681 112.812 200.979 109.577 212.512 106.854C235.57 101.409 267.45 98.0373 302.682 98.0373C337.913 98.0373 369.793 101.409 392.852 106.854C404.385 109.577 413.683 112.812 420.086 116.386C426.531 119.984 429.864 123.822 429.864 127.684Z" stroke="#EEEEEE"/>
<path d="M429.864 127.682C429.864 134.098 426.398 140.271 419.998 145.945C413.599 151.618 404.311 156.75 392.791 161.07C369.754 169.709 337.896 175.063 302.682 175.063C267.468 175.063 235.609 169.709 212.573 161.07C201.053 156.75 191.765 151.618 185.366 145.945C178.966 140.271 175.5 134.098 175.5 127.682C175.5 121.265 178.966 115.093 185.366 109.419C191.765 103.745 201.053 98.6133 212.573 94.2932C235.609 85.6545 267.468 80.3011 302.682 80.3011C337.896 80.3011 369.754 85.6545 392.791 94.2932C404.311 98.6133 413.599 103.745 419.998 109.419C426.398 115.093 429.864 121.265 429.864 127.682Z" stroke="#00F6FF"/>
<path d="M429.864 127.683C429.864 146.014 415.777 162.729 392.733 174.891C369.713 187.04 337.876 194.57 302.682 194.57C267.488 194.57 235.651 187.04 212.631 174.891C189.587 162.729 175.5 146.014 175.5 127.683C175.5 109.351 189.587 92.6362 212.631 80.4744C235.651 68.3247 267.488 60.7949 302.682 60.7949C337.876 60.7949 369.713 68.3247 392.733 80.4744C415.777 92.6362 429.864 109.351 429.864 127.683Z" stroke="#EEEEEE"/>
<path d="M429.864 127.683C429.864 151.464 415.7 173.051 392.685 188.714C369.673 204.375 337.853 214.078 302.682 214.078C267.511 214.078 235.691 204.375 212.678 188.714C189.663 173.051 175.5 151.464 175.5 127.683C175.5 103.902 189.663 82.3159 212.678 66.6528C235.691 50.9914 267.511 41.2886 302.682 41.2886C337.853 41.2886 369.673 50.9914 392.685 66.6528C415.7 82.3159 429.864 103.902 429.864 127.683Z" stroke="#00F6FF"/>
<path d="M429.864 127.684C429.864 186.09 373.012 233.585 302.682 233.585C232.352 233.585 175.5 186.09 175.5 127.684C175.5 69.2775 232.352 21.7822 302.682 21.7822C373.012 21.7822 429.864 69.2775 429.864 127.684Z" stroke="#EEEEEE"/>
<g filter="url(#filter0_d_10443_1132)">
<circle cx="302.682" cy="127.682" r="126.682" stroke="#EEEEEE" stroke-width="2" shape-rendering="crispEdges"/>
</g>
<line x1="175" y1="128.958" x2="430.364" y2="128.958" stroke="#EEEEEE" stroke-dasharray="5 5"/>
<path d="M296.476 232.312L330.169 211.918L276.082 191.525L315.983 173.791L355.883 154.284L292.042 97.5367L334.603 81.5765L251.255 67.3896L279.629 42.5625L308.002 21.2822" stroke="#00F6FF" stroke-dasharray="5 5"/>
<circle cx="308.002" cy="21.2803" r="5.32008" fill="#EEEEEE"/>
<circle cx="279.628" cy="42.5626" r="5.32008" fill="#00F6FF"/>
<circle cx="251.253" cy="67.3851" r="5.32008" fill="#EEEEEE"/>
<circle cx="334.603" cy="81.5751" r="5.32008" fill="#00F6FF"/>
<circle cx="292.042" cy="97.5354" r="5.32008" fill="#EEEEEE"/>
<circle cx="355.883" cy="154.284" r="5.32008" fill="#EEEEEE"/>
<circle cx="315.094" cy="173.791" r="5.32008" fill="#00F6FF"/>
<circle cx="276.082" cy="191.521" r="5.32008" fill="#EEEEEE"/>
<circle cx="329.281" cy="211.027" r="5.32008" fill="#00F6FF"/>
<circle cx="296.687" cy="232.985" r="5.32008" fill="#EEEEEE"/>
<ellipse cx="152.5" cy="218.5" rx="6.5" ry="6.5" transform="rotate(90 152.5 218.5)" fill="#EEEEEE"/>
<ellipse cx="6.5" cy="155.5" rx="6.5" ry="6.5" transform="rotate(90 6.5 155.5)" fill="#EEEEEE"/>
<circle cx="102" cy="94" r="5" transform="rotate(90 102 94)" fill="#EEEEEE"/>
<line x1="291.95" y1="233.497" x2="153.95" y2="219.497" stroke="#EEEEEE"/>
<line x1="147.127" y1="220.484" x2="67.1269" y2="241.484" stroke="#EEEEEE"/>
<line x1="106.358" y1="196.349" x2="64.3577" y2="239.349" stroke="#EEEEEE"/>
<line x1="106.112" y1="196.487" x2="28.1124" y2="214.487" stroke="#EEEEEE"/>
<line x1="104.829" y1="191.47" x2="8.82873" y2="156.47" stroke="#EEEEEE"/>
<line x1="99.2684" y1="96.4218" x2="11.2684" y2="152.422" stroke="#EEEEEE"/>
<ellipse cx="64" cy="243" rx="4" ry="4" transform="rotate(90 64 243)" fill="#00F6FF"/>
<ellipse cx="108" cy="193" rx="4" ry="4" transform="rotate(90 108 193)" fill="#00F6FF"/>
<ellipse cx="25" cy="215" rx="4" ry="4" transform="rotate(90 25 215)" fill="#00F6FF"/>
<defs>
<filter id="filter0_d_10443_1132" x="171" y="0" width="263.363" height="263.364" filterUnits="userSpaceOnUse" color-interpolation-filters="sRGB">
<feFlood flood-opacity="0" result="BackgroundImageFix"/>
<feColorMatrix in="SourceAlpha" type="matrix" values="0 0 0 0 0 0 0 0 0 0 0 0 0 0 0 0 0 0 127 0" result="hardAlpha"/>
<feOffset dy="4"/>
<feGaussianBlur stdDeviation="2"/>
<feComposite in2="hardAlpha" operator="out"/>
<feColorMatrix type="matrix" values="0 0 0 0 0 0 0 0 0 0 0 0 0 0 0 0 0 0 0.25 0"/>
<feBlend mode="normal" in2="BackgroundImageFix" result="effect1_dropShadow_10443_1132"/>
<feBlend mode="normal" in="SourceGraphic" in2="effect1_dropShadow_10443_1132" result="shape"/>
</filter>
</defs>
</svg>
