<svg width="383" height="87" viewBox="0 0 383 87" fill="none" xmlns="http://www.w3.org/2000/svg">
<path fill-rule="evenodd" clip-rule="evenodd" d="M32 0C14.3269 0 0 14.3269 0 32V0H32ZM351 0C368.673 0 383 14.3269 383 32V0H351ZM383 54.5C383 72.1731 368.673 86.5 351 86.5H383V54.5ZM32 86.5C14.3269 86.5 0 72.1731 0 54.5V86.5H32Z" fill="#EEEEEE"/>
<path d="M53.9062 65.9375C50.4688 65.7708 47.2812 65.4167 44.3438 64.875C41.4271 64.3125 38.8333 63.6458 36.5625 62.875V53.4688C38.8958 54.7604 41.5312 55.8021 44.4688 56.5938C47.4062 57.3854 50.5521 57.8958 53.9062 58.125V47.8125C52.4688 47.5208 51.0312 47.1979 49.5938 46.8438C48.1562 46.4896 46.7812 46.0729 45.4688 45.5938C44.1771 45.1146 42.9688 44.5625 41.8438 43.9375C40.7188 43.2917 39.7396 42.5521 38.9062 41.7188C38.0938 40.8854 37.4479 39.9479 36.9688 38.9062C36.5104 37.8438 36.2812 36.6354 36.2812 35.2812C36.2812 33.7396 36.5208 32.3854 37 31.2188C37.5 30.0521 38.1667 29.0312 39 28.1562C39.8542 27.2812 40.8438 26.5521 41.9688 25.9688C43.1146 25.3646 44.3438 24.875 45.6562 24.5C46.9688 24.1042 48.3229 23.8125 49.7188 23.625C51.1354 23.4167 52.5312 23.2708 53.9062 23.1875V19.0312H62.1562V23.25C64.8021 23.4375 67.4062 23.7708 69.9688 24.25C72.5521 24.7292 74.875 25.2708 76.9375 25.875V34.9062C76.2708 34.5938 75.4271 34.25 74.4062 33.875C73.3854 33.4792 72.2396 33.0938 70.9688 32.7188C69.6979 32.3438 68.3125 32.0104 66.8125 31.7188C65.3333 31.4062 63.7812 31.1667 62.1562 31V40.0312C63.6146 40.3438 65.0833 40.6875 66.5625 41.0625C68.0417 41.4375 69.4479 41.875 70.7812 42.375C72.1354 42.875 73.3958 43.4583 74.5625 44.125C75.7292 44.7708 76.7396 45.5208 77.5938 46.375C78.4688 47.2292 79.1458 48.1979 79.625 49.2812C80.125 50.3646 80.375 51.5833 80.375 52.9375C80.375 54.5833 80.125 56.0312 79.625 57.2812C79.125 58.5312 78.4375 59.625 77.5625 60.5625C76.6875 61.4792 75.6667 62.2604 74.5 62.9062C73.3333 63.5312 72.0729 64.0521 70.7188 64.4688C69.3646 64.8646 67.9583 65.1771 66.5 65.4062C65.0417 65.6146 63.5938 65.7708 62.1562 65.875V70.0312H53.9062V65.9375ZM69.5625 53.7188C69.5625 53.1771 69.375 52.6979 69 52.2812C68.625 51.8438 68.1042 51.4688 67.4375 51.1562C66.7917 50.8229 66.0104 50.5208 65.0938 50.25C64.1979 49.9792 63.2188 49.7292 62.1562 49.5V58.0625C63.5729 57.9167 64.75 57.6979 65.6875 57.4062C66.6458 57.0938 67.4062 56.7396 67.9688 56.3438C68.5521 55.9479 68.9583 55.5312 69.1875 55.0938C69.4375 54.6354 69.5625 54.1771 69.5625 53.7188ZM47.0312 34.375C47.0312 34.875 47.1979 35.3229 47.5312 35.7188C47.8646 36.0938 48.3333 36.4375 48.9375 36.75C49.5625 37.0625 50.2917 37.3542 51.125 37.625C51.9792 37.875 52.9062 38.1146 53.9062 38.3438V31C52.4271 31.1042 51.2396 31.2812 50.3438 31.5312C49.4479 31.7604 48.75 32.0312 48.25 32.3438C47.7708 32.6354 47.4479 32.9583 47.2812 33.3125C47.1146 33.6667 47.0312 34.0208 47.0312 34.375ZM103.25 39.4375L127 23.0625H142.531L113.625 43.6562L144.469 66H127.562L103.25 48.1562V66H91.5938V23.0625H103.25V39.4375ZM201.906 51.5312C201.906 53.6771 201.375 55.6979 200.312 57.5938C199.25 59.4896 197.656 61.1458 195.531 62.5625C193.406 63.9792 190.75 65.1042 187.562 65.9375C184.396 66.75 180.688 67.1562 176.438 67.1562C172.188 67.1562 168.458 66.75 165.25 65.9375C162.062 65.1042 159.406 63.9792 157.281 62.5625C155.156 61.1458 153.562 59.4896 152.5 57.5938C151.438 55.6979 150.906 53.6771 150.906 51.5312V23.0625H162.469V47.375C162.469 48.8125 162.646 50.1771 163 51.4688C163.375 52.7396 164.062 53.8542 165.062 54.8125C166.083 55.7708 167.5 56.5312 169.312 57.0938C171.146 57.6562 173.521 57.9375 176.438 57.9375C179.333 57.9375 181.688 57.6562 183.5 57.0938C185.312 56.5312 186.719 55.7708 187.719 54.8125C188.74 53.8542 189.427 52.7396 189.781 51.4688C190.135 50.1771 190.312 48.8125 190.312 47.375V23.0625H201.906V51.5312ZM269.625 66V35.8438L253.688 66H242.562L226.625 35.8438V66H215.031V23.0625H230.781L248.125 55.5625L265.469 23.0625H281.156V66H269.625ZM350.156 44.5625C350.156 48.25 349.479 51.5104 348.125 54.3438C346.771 57.1562 344.833 59.5104 342.312 61.4062C339.792 63.3021 336.729 64.7396 333.125 65.7188C329.542 66.6771 325.51 67.1562 321.031 67.1562C316.552 67.1562 312.5 66.6771 308.875 65.7188C305.271 64.7396 302.198 63.3021 299.656 61.4062C297.115 59.5104 295.156 57.1562 293.781 54.3438C292.406 51.5104 291.719 48.25 291.719 44.5625C291.719 40.875 292.406 37.625 293.781 34.8125C295.156 31.9792 297.115 29.6146 299.656 27.7188C302.198 25.8229 305.271 24.3958 308.875 23.4375C312.5 22.4583 316.552 21.9688 321.031 21.9688C325.51 21.9688 329.542 22.4583 333.125 23.4375C336.729 24.3958 339.792 25.8229 342.312 27.7188C344.833 29.6146 346.771 31.9792 348.125 34.8125C349.479 37.625 350.156 40.875 350.156 44.5625ZM338.438 44.5625C338.438 42.9583 338.177 41.3646 337.656 39.7812C337.156 38.1771 336.25 36.7396 334.938 35.4688C333.646 34.1979 331.875 33.1667 329.625 32.375C327.375 31.5833 324.51 31.1875 321.031 31.1875C318.698 31.1875 316.646 31.375 314.875 31.75C313.104 32.1042 311.573 32.6042 310.281 33.25C308.99 33.8958 307.906 34.6562 307.031 35.5312C306.156 36.3854 305.458 37.3125 304.938 38.3125C304.417 39.2917 304.042 40.3229 303.812 41.4062C303.604 42.4688 303.5 43.5208 303.5 44.5625C303.5 45.625 303.604 46.6979 303.812 47.7812C304.042 48.8646 304.417 49.9062 304.938 50.9062C305.458 51.8854 306.156 52.8021 307.031 53.6562C307.906 54.5104 308.99 55.2604 310.281 55.9062C311.573 56.5312 313.104 57.0312 314.875 57.4062C316.646 57.7604 318.698 57.9375 321.031 57.9375C324.51 57.9375 327.375 57.5417 329.625 56.75C331.875 55.9583 333.646 54.9271 334.938 53.6562C336.25 52.3854 337.156 50.9583 337.656 49.375C338.177 47.7708 338.438 46.1667 338.438 44.5625Z" fill="#00F6FF"/>
</svg>
