<svg width="62" height="62" viewBox="0 0 62 62" fill="none" xmlns="http://www.w3.org/2000/svg">
<path d="M12.7609 21.7395L3.35884 16.9521C2.62112 18.3962 2.00112 19.9109 1.49884 21.457L11.5366 24.7061C11.8662 23.6858 12.2743 22.6891 12.7609 21.7395Z" fill="black"/>
<path d="M20.7425 13.3027L25.9457 22.2731C26.707 21.8336 27.5232 21.4962 28.363 21.2686L25.6711 11.2544C26.3538 11.0739 27.0523 10.9169 27.7587 10.807L26.1027 0.384766C24.5017 0.635905 22.9085 1.02046 21.3703 1.52274L24.588 11.3957C23.5599 11.7331 22.5632 12.1491 21.6057 12.6357L16.8812 3.39844C15.445 4.13616 14.048 4.9916 12.7452 5.94907L18.9609 14.4643C19.5338 14.0483 20.1303 13.6638 20.7425 13.3027Z" fill="black"/>
<path d="M48.6895 20.7346L39.7191 25.9457C40.1586 26.707 40.5039 27.5232 40.7315 28.3629L50.7457 25.6632C50.9341 26.3459 51.0832 27.0444 51.193 27.7429L61.6153 26.087C61.3642 24.4859 60.9796 22.8928 60.4695 21.3546L50.6044 24.588C50.267 23.5599 49.851 22.5632 49.3644 21.6057L58.6017 16.8654C57.8639 15.4292 57.0085 14.0323 56.051 12.7295L47.5358 18.953C47.9439 19.5259 48.3285 20.1224 48.6895 20.7346Z" fill="black"/>
<path d="M45.0323 3.35121C43.5882 2.61349 42.0735 1.99349 40.5275 1.49121L37.2862 11.5289C38.2986 11.8586 39.2953 12.2667 40.2528 12.7532L45.0323 3.35121Z" fill="black"/>
<path d="M41.2809 13.1217L36.0148 22.2647C36.7761 22.7042 37.4824 23.2457 38.1024 23.8657L52.8726 9.04068C51.7267 7.89485 50.4789 6.83536 49.1761 5.88574L43.086 14.2911C42.5052 13.8673 41.9088 13.4749 41.2809 13.1217Z" fill="black"/>
<path d="M13.1219 20.703L22.2571 25.9769C22.6966 25.2157 23.2381 24.5093 23.8581 23.8815L9.04874 9.10352C7.90291 10.2493 6.84342 11.4972 5.8938 12.8L14.2913 18.8979C13.8753 19.4787 13.4829 20.083 13.1219 20.703Z" fill="black"/>
<path d="M34.194 10.6263L35.7872 0.368859C34.2097 0.125568 32.6008 0 30.992 0H30.9684V20.923H30.992C31.871 20.923 32.75 21.0329 33.5897 21.2605L36.2973 11.0658C35.6067 10.8775 34.9082 10.7362 34.194 10.6263Z" fill="black"/>
<path d="M21.2604 28.402L11.0657 25.6865C10.8852 26.3772 10.7361 27.0835 10.6262 27.7898L0.368737 26.1888C0.125446 27.7663 -0.00012207 29.3908 -0.00012207 30.9997H20.9229C20.9229 30.1129 21.0406 29.2417 21.2604 28.402Z" fill="black"/>
<path d="M49.2389 40.2605L58.6409 45.0479C59.3786 43.6038 59.9986 42.0891 60.5009 40.5431L50.4632 37.2939C50.1336 38.3142 49.7255 39.3109 49.2389 40.2605Z" fill="black"/>
<path d="M41.2495 48.6891L36.0462 39.7188C35.2849 40.1582 34.4687 40.4957 33.629 40.7233L36.3209 50.7375C35.6381 50.918 34.9396 51.075 34.2333 51.1848L35.8892 61.6071C37.4902 61.356 39.0834 60.9714 40.6216 60.4691L37.4039 50.5962C38.432 50.2588 39.4287 49.8428 40.3862 49.3562L45.1186 58.5934C46.5548 57.8557 47.9518 57.0003 49.2545 56.0428L43.0388 47.5198C42.4659 47.9514 41.8695 48.336 41.2495 48.6891Z" fill="black"/>
<path d="M13.3103 41.2651L22.2807 36.0461C21.8412 35.2849 21.4959 34.4687 21.2683 33.6289L11.2541 36.3287C11.0657 35.6459 10.9166 34.9474 10.8067 34.2489L0.38446 35.9049C0.6356 37.5059 1.02016 39.099 1.53028 40.6373L11.3953 37.4117C11.7328 38.4319 12.1488 39.4365 12.6353 40.394L3.39813 45.1342C4.13585 46.5704 4.9913 47.9674 5.94876 49.2702L14.464 43.0466C14.0559 42.4737 13.6713 41.8773 13.3103 41.2651Z" fill="black"/>
<path d="M16.9675 58.6491C18.4115 59.3868 19.9262 60.0068 21.4723 60.5091L24.7135 50.4714C23.7011 50.1418 22.7044 49.7337 21.747 49.2471L16.9675 58.6491Z" fill="black"/>
<path d="M20.711 48.8778L25.9771 39.7348C25.2158 39.2953 24.5095 38.7538 23.8895 38.1338L9.11938 52.9589C10.2652 54.1047 11.5131 55.1642 12.8158 56.1138L18.906 47.7085C19.4867 48.1244 20.091 48.5168 20.711 48.8778Z" fill="black"/>
<path d="M48.8701 41.2964L39.7349 36.0225C39.2954 36.7837 38.7539 37.4901 38.1339 38.1179L52.9511 52.8959C54.0969 51.7501 55.1564 50.5022 56.106 49.1994L47.7085 43.1014C48.1245 42.5128 48.5169 41.9164 48.8701 41.2964Z" fill="black"/>
<path d="M28.4022 40.7393L25.6946 50.9339C26.3852 51.1144 27.0915 51.2636 27.7979 51.3734L26.2047 61.6309C27.7822 61.8742 29.391 61.9998 30.9999 61.9998H31.0234V41.0767H30.9999C30.1209 41.0767 29.2419 40.959 28.4022 40.7393Z" fill="black"/>
<path d="M41.0768 31C41.0768 31.8868 40.9669 32.758 40.7393 33.5977L50.934 36.3132C51.1145 35.6225 51.2636 34.9162 51.3735 34.2099L61.631 35.8109C61.8743 34.2334 61.9998 32.6089 61.9998 31H41.0768Z" fill="black"/>
</svg>
