<svg width="159" height="50" viewBox="0 0 159 50" fill="none" xmlns="http://www.w3.org/2000/svg">
<path fill-rule="evenodd" clip-rule="evenodd" d="M12 0C5.37258 0 0 5.37258 0 12V0H12ZM146.287 0C152.914 0 158.287 5.37258 158.287 12V0H146.287ZM158.287 38C158.287 44.6274 152.914 50 146.287 50H158.287V38ZM12 50C5.37257 50 0 44.6274 0 38V50H12Z" fill="#EEEEEE"/>
<path d="M33.8535 32.9727C32.3496 32.8997 30.9551 32.7448 29.6699 32.5078C28.3939 32.2617 27.2591 31.9701 26.2656 31.6328V27.5176C27.2865 28.0827 28.4395 28.5384 29.7246 28.8848C31.0098 29.2311 32.3861 29.4544 33.8535 29.5547V25.043C33.2246 24.9154 32.5957 24.7741 31.9668 24.6191C31.3379 24.4642 30.7363 24.2819 30.1621 24.0723C29.597 23.8626 29.0684 23.6211 28.5762 23.3477C28.084 23.0651 27.6556 22.7415 27.291 22.377C26.9355 22.0124 26.653 21.6022 26.4434 21.1465C26.2428 20.6816 26.1426 20.153 26.1426 19.5605C26.1426 18.8861 26.2474 18.2936 26.457 17.7832C26.6758 17.2728 26.9674 16.8262 27.332 16.4434C27.7057 16.0605 28.1387 15.7415 28.6309 15.4863C29.1322 15.222 29.6699 15.0078 30.2441 14.8438C30.8184 14.6706 31.4108 14.543 32.0215 14.4609C32.6413 14.3698 33.252 14.306 33.8535 14.2695V12.4512H37.4629V14.2969C38.6204 14.3789 39.7598 14.5247 40.8809 14.7344C42.0111 14.944 43.0273 15.181 43.9297 15.4453V19.3965C43.638 19.2598 43.2689 19.1094 42.8223 18.9453C42.3757 18.7721 41.8743 18.6035 41.3184 18.4395C40.7624 18.2754 40.1562 18.1296 39.5 18.002C38.8529 17.8652 38.1738 17.7604 37.4629 17.6875V21.6387C38.1009 21.7754 38.7435 21.9258 39.3906 22.0898C40.0378 22.2539 40.653 22.4453 41.2363 22.6641C41.8288 22.8828 42.3802 23.138 42.8906 23.4297C43.401 23.7122 43.8431 24.0404 44.2168 24.4141C44.5996 24.7878 44.8958 25.2116 45.1055 25.6855C45.3242 26.1595 45.4336 26.6927 45.4336 27.2852C45.4336 28.0052 45.3242 28.6387 45.1055 29.1855C44.8867 29.7324 44.5859 30.2109 44.2031 30.6211C43.8203 31.0221 43.3737 31.3639 42.8633 31.6465C42.3529 31.9199 41.8014 32.1478 41.209 32.3301C40.6165 32.5033 40.0013 32.64 39.3633 32.7402C38.7253 32.8314 38.0918 32.8997 37.4629 32.9453V34.7637H33.8535V32.9727ZM40.7031 27.627C40.7031 27.39 40.6211 27.1803 40.457 26.998C40.293 26.8066 40.0651 26.6426 39.7734 26.5059C39.4909 26.36 39.1491 26.2279 38.748 26.1094C38.3561 25.9909 37.9277 25.8815 37.4629 25.7812V29.5273C38.0827 29.4635 38.5977 29.3678 39.0078 29.2402C39.4271 29.1035 39.7598 28.9486 40.0059 28.7754C40.2611 28.6022 40.4388 28.4199 40.5391 28.2285C40.6484 28.028 40.7031 27.8275 40.7031 27.627ZM30.8457 19.1641C30.8457 19.3828 30.9186 19.5788 31.0645 19.752C31.2103 19.916 31.4154 20.0664 31.6797 20.2031C31.9531 20.3398 32.2721 20.4674 32.6367 20.5859C33.0104 20.6953 33.416 20.8001 33.8535 20.9004V17.6875C33.2064 17.7331 32.6868 17.8105 32.2949 17.9199C31.903 18.0202 31.5977 18.1387 31.3789 18.2754C31.1693 18.403 31.028 18.5443 30.9551 18.6992C30.8822 18.8542 30.8457 19.0091 30.8457 19.1641ZM74.6504 23.6211C74.6504 25.2344 74.3542 26.6608 73.7617 27.9004C73.1693 29.1309 72.3216 30.1608 71.2188 30.9902C70.1159 31.8197 68.776 32.4486 67.1992 32.877C65.6315 33.2962 63.8678 33.5059 61.9082 33.5059C59.9486 33.5059 58.1758 33.2962 56.5898 32.877C55.013 32.4486 53.6686 31.8197 52.5566 30.9902C51.4447 30.1608 50.5879 29.1309 49.9863 27.9004C49.3848 26.6608 49.084 25.2344 49.084 23.6211C49.084 22.0078 49.3848 20.5859 49.9863 19.3555C50.5879 18.1159 51.4447 17.0814 52.5566 16.252C53.6686 15.4225 55.013 14.7982 56.5898 14.3789C58.1758 13.9505 59.9486 13.7363 61.9082 13.7363C63.8678 13.7363 65.6315 13.9505 67.1992 14.3789C68.776 14.7982 70.1159 15.4225 71.2188 16.252C72.3216 17.0814 73.1693 18.1159 73.7617 19.3555C74.3542 20.5859 74.6504 22.0078 74.6504 23.6211ZM69.5234 23.6211C69.5234 22.9193 69.4095 22.222 69.1816 21.5293C68.9629 20.8275 68.5664 20.1986 67.9922 19.6426C67.4271 19.0866 66.6523 18.6354 65.668 18.2891C64.6836 17.9427 63.4303 17.7695 61.9082 17.7695C60.8874 17.7695 59.9896 17.8516 59.2148 18.0156C58.4401 18.1706 57.7702 18.3893 57.2051 18.6719C56.64 18.9544 56.166 19.2871 55.7832 19.6699C55.4004 20.0436 55.0951 20.4492 54.8672 20.8867C54.6393 21.3151 54.4753 21.7663 54.375 22.2402C54.2839 22.7051 54.2383 23.1654 54.2383 23.6211C54.2383 24.0859 54.2839 24.5553 54.375 25.0293C54.4753 25.5033 54.6393 25.959 54.8672 26.3965C55.0951 26.8249 55.4004 27.2259 55.7832 27.5996C56.166 27.9733 56.64 28.3014 57.2051 28.584C57.7702 28.8574 58.4401 29.0762 59.2148 29.2402C59.9896 29.3952 60.8874 29.4727 61.9082 29.4727C63.4303 29.4727 64.6836 29.2995 65.668 28.9531C66.6523 28.6068 67.4271 28.1556 67.9922 27.5996C68.5664 27.0436 68.9629 26.4193 69.1816 25.7266C69.4095 25.0247 69.5234 24.3229 69.5234 23.6211ZM79.2715 33V14.2148H84.3438V28.8848H98.0566V33H79.2715ZM126.016 33V19.8066L119.043 33H114.176L107.203 19.8066V33H102.131V14.2148H109.021L116.609 28.4336L124.197 14.2148H131.061V33H126.016Z" fill="#00FBFF"/>
</svg>
