<svg width="660" height="261" viewBox="0 0 660 261" fill="none" xmlns="http://www.w3.org/2000/svg">
<path fill-rule="evenodd" clip-rule="evenodd" d="M109.319 223.051C115.273 203.591 119 176.525 119 146.5C119 116.475 115.273 89.4093 109.319 69.9495C106.337 60.201 102.847 52.5306 99.1089 47.3633C95.3219 42.1276 91.6978 40 88.5 40C85.3022 40 81.6781 42.1276 77.8911 47.3633C74.1535 52.5306 70.6631 60.201 67.6807 69.9495C61.7272 89.4093 58 116.475 58 146.5C58 176.525 61.7272 203.591 67.6807 223.051C70.6631 232.799 74.1535 240.469 77.8911 245.637C81.6781 250.872 85.3022 253 88.5 253C91.6978 253 95.3219 250.872 99.1089 245.637C102.847 240.469 106.337 232.799 109.319 223.051ZM88.5 256C107.002 256 122 206.975 122 146.5C122 86.0248 107.002 37 88.5 37C69.9985 37 55 86.0248 55 146.5C55 206.975 69.9985 256 88.5 256Z" fill="url(#paint0_linear_7126_9376)"/>
<path fill-rule="evenodd" clip-rule="evenodd" d="M168.319 223.051C174.273 203.591 178 176.525 178 146.5C178 116.475 174.273 89.4093 168.319 69.9495C165.337 60.201 161.847 52.5306 158.109 47.3633C154.322 42.1276 150.698 40 147.5 40C144.302 40 140.678 42.1276 136.891 47.3633C133.153 52.5306 129.663 60.201 126.681 69.9495C120.727 89.4093 117 116.475 117 146.5C117 176.525 120.727 203.591 126.681 223.051C129.663 232.799 133.153 240.469 136.891 245.637C140.678 250.872 144.302 253 147.5 253C150.698 253 154.322 250.872 158.109 245.637C161.847 240.469 165.337 232.799 168.319 223.051ZM147.5 256C166.002 256 181 206.975 181 146.5C181 86.0248 166.002 37 147.5 37C128.998 37 114 86.0248 114 146.5C114 206.975 128.998 256 147.5 256Z" fill="url(#paint1_linear_7126_9376)"/>
<path fill-rule="evenodd" clip-rule="evenodd" d="M227.319 223.051C233.273 203.591 237 176.525 237 146.5C237 116.475 233.273 89.4093 227.319 69.9495C224.337 60.201 220.847 52.5306 217.109 47.3633C213.322 42.1276 209.698 40 206.5 40C203.302 40 199.678 42.1276 195.891 47.3633C192.153 52.5306 188.663 60.201 185.681 69.9495C179.727 89.4093 176 116.475 176 146.5C176 176.525 179.727 203.591 185.681 223.051C188.663 232.799 192.153 240.469 195.891 245.637C199.678 250.872 203.302 253 206.5 253C209.698 253 213.322 250.872 217.109 245.637C220.847 240.469 224.337 232.799 227.319 223.051ZM206.5 256C225.002 256 240 206.975 240 146.5C240 86.0248 225.002 37 206.5 37C187.998 37 173 86.0248 173 146.5C173 206.975 187.998 256 206.5 256Z" fill="url(#paint2_linear_7126_9376)"/>
<path fill-rule="evenodd" clip-rule="evenodd" d="M286.319 223.051C292.273 203.591 296 176.525 296 146.5C296 116.475 292.273 89.4093 286.319 69.9495C283.337 60.201 279.847 52.5306 276.109 47.3633C272.322 42.1276 268.698 40 265.5 40C262.302 40 258.678 42.1276 254.891 47.3633C251.153 52.5306 247.663 60.201 244.681 69.9495C238.727 89.4093 235 116.475 235 146.5C235 176.525 238.727 203.591 244.681 223.051C247.663 232.799 251.153 240.469 254.891 245.637C258.678 250.872 262.302 253 265.5 253C268.698 253 272.322 250.872 276.109 245.637C279.847 240.469 283.337 232.799 286.319 223.051ZM265.5 256C284.002 256 299 206.975 299 146.5C299 86.0248 284.002 37 265.5 37C246.998 37 232 86.0248 232 146.5C232 206.975 246.998 256 265.5 256Z" fill="url(#paint3_linear_7126_9376)"/>
<path fill-rule="evenodd" clip-rule="evenodd" d="M345.319 223.051C351.273 203.591 355 176.525 355 146.5C355 116.475 351.273 89.4093 345.319 69.9495C342.337 60.201 338.847 52.5306 335.109 47.3633C331.322 42.1276 327.698 40 324.5 40C321.302 40 317.678 42.1276 313.891 47.3633C310.153 52.5306 306.663 60.201 303.681 69.9495C297.727 89.4093 294 116.475 294 146.5C294 176.525 297.727 203.591 303.681 223.051C306.663 232.799 310.153 240.469 313.891 245.637C317.678 250.872 321.302 253 324.5 253C327.698 253 331.322 250.872 335.109 245.637C338.847 240.469 342.337 232.799 345.319 223.051ZM324.5 256C343.002 256 358 206.975 358 146.5C358 86.0248 343.002 37 324.5 37C305.998 37 291 86.0248 291 146.5C291 206.975 305.998 256 324.5 256Z" fill="url(#paint4_linear_7126_9376)"/>
<path fill-rule="evenodd" clip-rule="evenodd" d="M404.319 223.051C410.273 203.591 414 176.525 414 146.5C414 116.475 410.273 89.4093 404.319 69.9495C401.337 60.201 397.847 52.5306 394.109 47.3633C390.322 42.1276 386.698 40 383.5 40C380.302 40 376.678 42.1276 372.891 47.3633C369.153 52.5306 365.663 60.201 362.681 69.9495C356.727 89.4093 353 116.475 353 146.5C353 176.525 356.727 203.591 362.681 223.051C365.663 232.799 369.153 240.469 372.891 245.637C376.678 250.872 380.302 253 383.5 253C386.698 253 390.322 250.872 394.109 245.637C397.847 240.469 401.337 232.799 404.319 223.051ZM383.5 256C402.002 256 417 206.975 417 146.5C417 86.0248 402.002 37 383.5 37C364.998 37 350 86.0248 350 146.5C350 206.975 364.998 256 383.5 256Z" fill="url(#paint5_linear_7126_9376)"/>
<path fill-rule="evenodd" clip-rule="evenodd" d="M463.319 223.051C469.273 203.591 473 176.525 473 146.5C473 116.475 469.273 89.4093 463.319 69.9495C460.337 60.201 456.847 52.5306 453.109 47.3633C449.322 42.1276 445.698 40 442.5 40C439.302 40 435.678 42.1276 431.891 47.3633C428.153 52.5306 424.663 60.201 421.681 69.9495C415.727 89.4093 412 116.475 412 146.5C412 176.525 415.727 203.591 421.681 223.051C424.663 232.799 428.153 240.469 431.891 245.637C435.678 250.872 439.302 253 442.5 253C445.698 253 449.322 250.872 453.109 245.637C456.847 240.469 460.337 232.799 463.319 223.051ZM442.5 256C461.002 256 476 206.975 476 146.5C476 86.0248 461.002 37 442.5 37C423.998 37 409 86.0248 409 146.5C409 206.975 423.998 256 442.5 256Z" fill="url(#paint6_linear_7126_9376)"/>
<path fill-rule="evenodd" clip-rule="evenodd" d="M522.319 223.051C528.273 203.591 532 176.525 532 146.5C532 116.475 528.273 89.4093 522.319 69.9495C519.337 60.201 515.847 52.5306 512.109 47.3633C508.322 42.1276 504.698 40 501.5 40C498.302 40 494.678 42.1276 490.891 47.3633C487.153 52.5306 483.663 60.201 480.681 69.9495C474.727 89.4093 471 116.475 471 146.5C471 176.525 474.727 203.591 480.681 223.051C483.663 232.799 487.153 240.469 490.891 245.637C494.678 250.872 498.302 253 501.5 253C504.698 253 508.322 250.872 512.109 245.637C515.847 240.469 519.337 232.799 522.319 223.051ZM501.5 256C520.002 256 535 206.975 535 146.5C535 86.0248 520.002 37 501.5 37C482.998 37 468 86.0248 468 146.5C468 206.975 482.998 256 501.5 256Z" fill="url(#paint7_linear_7126_9376)"/>
<path fill-rule="evenodd" clip-rule="evenodd" d="M581.319 223.051C587.273 203.591 591 176.525 591 146.5C591 116.475 587.273 89.4093 581.319 69.9495C578.337 60.201 574.847 52.5306 571.109 47.3633C567.322 42.1276 563.698 40 560.5 40C557.302 40 553.678 42.1276 549.891 47.3633C546.153 52.5306 542.663 60.201 539.681 69.9495C533.727 89.4093 530 116.475 530 146.5C530 176.525 533.727 203.591 539.681 223.051C542.663 232.799 546.153 240.469 549.891 245.637C553.678 250.872 557.302 253 560.5 253C563.698 253 567.322 250.872 571.109 245.637C574.847 240.469 578.337 232.799 581.319 223.051ZM560.5 256C579.002 256 594 206.975 594 146.5C594 86.0248 579.002 37 560.5 37C541.998 37 527 86.0248 527 146.5C527 206.975 541.998 256 560.5 256Z" fill="url(#paint8_linear_7126_9376)"/>
<path d="M501 110C501 100.611 508.611 93 518 93C527.389 93 535 100.611 535 110C535 119.389 527.389 127 518 127C508.611 127 501 119.389 501 110Z" fill="url(#paint9_linear_7126_9376)"/>
<path d="M647 118C647 114.686 649.686 112 653 112C656.314 112 659 114.686 659 118C659 121.314 656.314 124 653 124C649.686 124 647 121.314 647 118Z" fill="url(#paint10_linear_7126_9376)"/>
<path d="M631 199C631 195.686 633.686 193 637 193C640.314 193 643 195.686 643 199C643 202.314 640.314 205 637 205C633.686 205 631 202.314 631 199Z" fill="url(#paint11_linear_7126_9376)"/>
<path d="M0 58.5C0 55.4624 2.46243 53 5.5 53C8.53757 53 11 55.4624 11 58.5C11 61.5376 8.53757 64 5.5 64C2.46243 64 0 61.5376 0 58.5Z" fill="url(#paint12_linear_7126_9376)"/>
<path d="M30 100.5C30 97.4624 32.9101 95 36.5 95C40.0899 95 43 97.4624 43 100.5C43 103.538 40.0899 106 36.5 106C32.9101 106 30 103.538 30 100.5Z" fill="url(#paint13_linear_7126_9376)"/>
<path d="M576 182C576 175.925 580.925 171 587 171C593.075 171 598 175.925 598 182C598 188.075 593.075 193 587 193C580.925 193 576 188.075 576 182Z" fill="url(#paint14_linear_7126_9376)"/>
<path d="M5 218C5 212.477 9.70101 208 15.5 208C21.299 208 26 212.477 26 218C26 223.523 21.299 228 15.5 228C9.70101 228 5 223.523 5 218Z" fill="url(#paint15_linear_7126_9376)"/>
<path d="M62 154.5C62 145.387 69.835 138 79.5 138C89.165 138 97 145.387 97 154.5C97 163.613 89.165 171 79.5 171C69.835 171 62 163.613 62 154.5Z" fill="url(#paint16_linear_7126_9376)"/>
<defs>
<linearGradient id="paint0_linear_7126_9376" x1="121.697" y1="147.349" x2="55.0984" y2="147.349" gradientUnits="userSpaceOnUse">
<stop stop-color="#EEEEEE"/>
<stop offset="1" stop-color="#969696"/>
</linearGradient>
<linearGradient id="paint1_linear_7126_9376" x1="180.697" y1="147.349" x2="114.098" y2="147.349" gradientUnits="userSpaceOnUse">
<stop stop-color="#EEEEEE"/>
<stop offset="1" stop-color="#969696"/>
</linearGradient>
<linearGradient id="paint2_linear_7126_9376" x1="239.697" y1="147.349" x2="173.098" y2="147.349" gradientUnits="userSpaceOnUse">
<stop stop-color="#EEEEEE"/>
<stop offset="1" stop-color="#969696"/>
</linearGradient>
<linearGradient id="paint3_linear_7126_9376" x1="298.697" y1="147.349" x2="232.098" y2="147.349" gradientUnits="userSpaceOnUse">
<stop stop-color="#EEEEEE"/>
<stop offset="1" stop-color="#969696"/>
</linearGradient>
<linearGradient id="paint4_linear_7126_9376" x1="357.697" y1="147.349" x2="291.098" y2="147.349" gradientUnits="userSpaceOnUse">
<stop stop-color="#EEEEEE"/>
<stop offset="1" stop-color="#969696"/>
</linearGradient>
<linearGradient id="paint5_linear_7126_9376" x1="416.697" y1="147.349" x2="350.098" y2="147.349" gradientUnits="userSpaceOnUse">
<stop stop-color="#EEEEEE"/>
<stop offset="1" stop-color="#969696"/>
</linearGradient>
<linearGradient id="paint6_linear_7126_9376" x1="475.697" y1="147.349" x2="409.098" y2="147.349" gradientUnits="userSpaceOnUse">
<stop stop-color="#EEEEEE"/>
<stop offset="1" stop-color="#969696"/>
</linearGradient>
<linearGradient id="paint7_linear_7126_9376" x1="534.697" y1="147.349" x2="468.098" y2="147.349" gradientUnits="userSpaceOnUse">
<stop stop-color="#EEEEEE"/>
<stop offset="1" stop-color="#969696"/>
</linearGradient>
<linearGradient id="paint8_linear_7126_9376" x1="593.697" y1="147.349" x2="527.098" y2="147.349" gradientUnits="userSpaceOnUse">
<stop stop-color="#EEEEEE"/>
<stop offset="1" stop-color="#969696"/>
</linearGradient>
<linearGradient id="paint9_linear_7126_9376" x1="518" y1="127" x2="518" y2="93" gradientUnits="userSpaceOnUse">
<stop stop-color="#00F6FF"/>
<stop offset="1" stop-color="#1FC5EA"/>
</linearGradient>
<linearGradient id="paint10_linear_7126_9376" x1="653" y1="124" x2="653" y2="112" gradientUnits="userSpaceOnUse">
<stop stop-color="#00F6FF"/>
<stop offset="1" stop-color="#1FC5EA"/>
</linearGradient>
<linearGradient id="paint11_linear_7126_9376" x1="637" y1="205" x2="637" y2="193" gradientUnits="userSpaceOnUse">
<stop stop-color="#00F6FF"/>
<stop offset="1" stop-color="#1FC5EA"/>
</linearGradient>
<linearGradient id="paint12_linear_7126_9376" x1="5.5" y1="64" x2="5.5" y2="53" gradientUnits="userSpaceOnUse">
<stop stop-color="#00F6FF"/>
<stop offset="1" stop-color="#1FC5EA"/>
</linearGradient>
<linearGradient id="paint13_linear_7126_9376" x1="36.5" y1="106" x2="36.5" y2="95" gradientUnits="userSpaceOnUse">
<stop stop-color="#00F6FF"/>
<stop offset="1" stop-color="#1FC5EA"/>
</linearGradient>
<linearGradient id="paint14_linear_7126_9376" x1="587" y1="193" x2="587" y2="171" gradientUnits="userSpaceOnUse">
<stop stop-color="#00F6FF"/>
<stop offset="1" stop-color="#1FC5EA"/>
</linearGradient>
<linearGradient id="paint15_linear_7126_9376" x1="15.5" y1="228" x2="15.5" y2="208" gradientUnits="userSpaceOnUse">
<stop stop-color="#00F6FF"/>
<stop offset="1" stop-color="#1FC5EA"/>
</linearGradient>
<linearGradient id="paint16_linear_7126_9376" x1="79.5" y1="171" x2="79.5" y2="138" gradientUnits="userSpaceOnUse">
<stop stop-color="#00F6FF"/>
<stop offset="1" stop-color="#1FC5EA"/>
</linearGradient>
</defs>
</svg>
